<svg xmlns="http://www.w3.org/2000/svg" xmlns:xlink="http://www.w3.org/1999/xlink" width="303.69" height="147.092" viewBox="0 0 303.69 147.092"><defs><style>.a{fill:url(#a);}.b,.c{fill:#fff;}.b{font-size:105px;font-family:hellohoneyPersonalUse, hello honey - Personal Use;}.d{filter:url(#g);}.e{filter:url(#e);}</style><linearGradient id="a" x1="0.5" y1="1" x2="0.542" y2="0.025" gradientUnits="objectBoundingBox"><stop offset="0" stop-color="#df2626"/><stop offset="0" stop-color="red"/><stop offset="0.715" stop-color="#f8d700"/><stop offset="1" stop-color="#f8e400"/><stop offset="1" stop-color="#f7ff00"/></linearGradient><filter id="e" x="0" y="24.092" width="221" height="123" filterUnits="userSpaceOnUse"><feOffset dx="3" dy="3" input="SourceAlpha"/><feGaussianBlur stdDeviation="3" result="f"/><feFlood flood-opacity="0.259"/><feComposite operator="in" in2="f"/><feComposite in="SourceGraphic"/></filter><filter id="g" x="214" y="24.092" width="55" height="123" filterUnits="userSpaceOnUse"><feOffset dx="3" dy="3" input="SourceAlpha"/><feGaussianBlur stdDeviation="3" result="h"/><feFlood flood-opacity="0.259"/><feComposite operator="in" in2="h"/><feComposite in="SourceGraphic"/></filter></defs><g transform="translate(-104.23 -22.908)"><rect class="a" width="2.623" height="28.854" rx="1.312" transform="translate(327.111 70.284) rotate(150)"/><rect class="a" width="2.623" height="28.854" rx="1.312" transform="matrix(-0.996, 0.087, -0.087, -0.996, 344.877, 64.653)"/><rect class="a" width="2.623" height="28.854" rx="1.312" transform="translate(360.774 67.661) rotate(-150)"/><rect class="a" width="2.623" height="28.854" rx="1.312" transform="translate(366.54 80.187) rotate(-120)"/><g class="e" transform="matrix(1, 0, 0, 1, 104.23, 22.91)"><text class="b" transform="translate(6 114.09)"><tspan x="0" y="0">Kwizzy</tspan></text></g><g class="d" transform="matrix(1, 0, 0, 1, 104.23, 22.91)"><text class="b" transform="translate(220 114.09)"><tspan x="0" y="0">?</tspan></text></g><circle class="c" cx="2.5" cy="2.5" r="2.5" transform="translate(141.23 79)"/><circle class="c" cx="1.785" cy="1.785" r="1.785" transform="translate(221.885 110.11)"/><circle class="c" cx="1.785" cy="1.785" r="1.785" transform="translate(250.448 110.11)"/><circle class="c" cx="1.785" cy="1.785" r="1.785" transform="translate(314.714 110.11)"/><rect class="a" width="2.623" height="28.854" rx="1.312" transform="translate(327.111 70.284) rotate(150)"/><rect class="a" width="2.623" height="28.854" rx="1.312" transform="matrix(-0.996, 0.087, -0.087, -0.996, 344.877, 64.653)"/><rect class="a" width="2.623" height="28.854" rx="1.312" transform="translate(360.774 67.661) rotate(-150)"/><rect class="a" width="2.623" height="28.854" rx="1.312" transform="translate(366.54 80.187) rotate(-120)"/></g></svg>